<?xml version="1.0" encoding="utf-8"?>
<!-- Generator: Adobe Illustrator 23.0.0, SVG Export Plug-In . SVG Version: 6.00 Build 0)  -->
<svg version="1.1" id="Layer_1" xmlns="http://www.w3.org/2000/svg" xmlns:xlink="http://www.w3.org/1999/xlink" x="0px" y="0px"
	 viewBox="0 0 100 100" style="enable-background:new 0 0 100 100;" xml:space="preserve">
<style type="text/css">
	.st0{fill:none;stroke:#fff;stroke-width:4;stroke-miterlimit:10;}

	.st1a{fill:none;stroke:#fff;stroke-width:2;stroke-miterlimit:10;}
	.st1b{fill:none;stroke:#fff;stroke-width:2;stroke-miterlimit:10;}
	.st2{fill:none;stroke:#fff;stroke-miterlimit:10;}
	.st3a{fill:none;stroke:#fff;stroke-width:3;stroke-miterlimit:10;}
	.st3b{fill:none;stroke:#fff;stroke-width:3;stroke-miterlimit:10;}
	.st3c{fill:none;stroke:#fff;stroke-width:3;stroke-miterlimit:10;}
	.st4{fill:#fff;}

	.st5{font-family:'CopperplateGothic-Bold';}

	.st6{font-size:20px;}

</style>
<path class="st0" d="M51.95,52.11c-0.01-0.01-0.01-0.03-0.02-0.04c-1.3,1.44-2.6,2.89-3.91,4.33l5,5.17
	c0.49-2.16,0.46-4.4-0.05-6.55C51.47,54.86,51.13,53.03,51.95,52.11z"/>
<rect x="45.09" y="21.84" transform="matrix(-1 -1.224647e-16 1.224647e-16 -1 90.1786 111.7143)" class="st1" width="0" height="68.03"/>
<line class="st2" x1="45.09" y1="22.07" x2="36.64" y2="22.18"/>
<line class="st2" x1="44.96" y1="89.11" x2="36.61" y2="89.11"/>
<line class="st2" x1="38.32" y1="26.28" x2="38.32" y2="85.81"/>
<line class="st2" x1="45.09" y1="21.67" x2="45.09" y2="89.57"/>
<path class="st1a" d="M26.07,25.21C12.14,30.19,2.76,43.29,2.64,57.82c-0.11,13.63,7.95,26.21,20.54,32"/>
<path class="st1b" d="M27.61,36.71c-1.55,1.12-9.16,6.83-10.61,17.04c-1.35,9.51,3.16,19.22,11.57,25.07"/>
<path class="st3a" d="M60.04,40.89c1.46,1.64,5.71,6.81,6.39,14.75c0.75,8.75-3.31,15.01-4.5,16.71"/>
<path class="st3b" d="M67.75,32.21c2.11,2.08,9.07,9.44,10.29,21.21c1.5,14.5-6.85,24.6-8.36,26.36"/>
<path class="st3c" d="M75.79,23.86c2.34,2.23,13.01,12.91,13.82,30.21c0.88,18.78-10.55,31.05-12.54,33.11"/>
<text transform="matrix(1 0 0 1 80.5 17.3569)" class="st4 st5 st6"></text>
</svg>
